# xmcd CD database file
#
# Track frame offsets:
#	187
#	20205
#	34520
#	54507
#
# Disc length: 917 seconds
#
# Revision: 0
# Processed by: cddbd v1.5.1PL0 Copyright (c) Steve Scherf et al.
# Submitted via: CDex 1.51
#
DISCID=2c039304
DTITLE=酒井　法子 - 幸福なんてほしくないわ
DYEAR=1990
DGENRE=JPop
TTITLE0=幸福なんてほしくないわ
TTITLE1=ほほにキスして
TTITLE2=幸福なんてほしくないわ（カラオケ）
TTITLE3=ほほにキスして（カラオケ）
EXTD=YEAR: 1990
EXTT0=
EXTT1=
EXTT2=
EXTT3=
PLAYORDER=
